<svg xmlns="http://www.w3.org/2000/svg" viewBox="0 0 771.62 600.03"><defs><style>.cls-1{fill:#1f0322;}.cls-2{fill:#a2e8ea;}.cls-3{fill:#acbcc6;}.cls-4{fill:#cdaca1;}.cls-5{fill:#b5887c;}.cls-6{fill:#9aaeb7;}.cls-7{fill:#8bd8d8;}</style></defs><g id="Layer_2" data-name="Layer 2"><g id="Layer_1-2" data-name="Layer 1"><rect class="cls-1" x="126.72" y="67.43" width="51.36" height="52.45"/><rect class="cls-1" x="57.18" y="166.91" width="21.79" height="21.79"/><rect class="cls-1" x="87.65" width="33.94" height="33.94"/><rect class="cls-1" x="63.64" y="58.49" width="34.46" height="34.46"/><rect class="cls-1" x="18.48" y="81.32" width="21.79" height="21.79" transform="translate(-59.91 129.57) rotate(-95.03)"/><rect class="cls-1" x="0.91" y="6.08" width="21.79" height="21.79" transform="translate(-4.06 30.22) rotate(-95.03)"/><rect class="cls-1" x="187.03" y="20.52" width="21.26" height="22.33"/><path class="cls-1" d="M196,41.72l-1.09,1.12h13.41V41.72Z"/><path class="cls-1" d="M208.29,41.72v1.12H194.88l-16.8,29V87.52h26.83v44.66H180.37v-12.3h-30.2l-6.65,12.3-2.29,3.35h-48v51.36h19L34,320.88h95a112.24,112.24,0,0,0,97.16-55.83l49.07-86,1.09-1.14C283.09,162.33,346.77,41.72,474,41.72ZM155.73,193.6H133.48v-6.71H145.7V170.15h10Z"/><path class="cls-2" d="M644.9,564.29c-1.2,1.14-1.2,1.14-2.29,2.23-12.32,12.3-29,22.36-45.8,26.83A90.74,90.74,0,0,1,562.24,600H371.31c-41.33,0-78.19-21.21-99.45-56.95L225,462.69H514.26c21.16,0,41.22-11.15,51.36-29l48-83.74c6.65-13.39,8.94-27.92,6.65-41.3-1.09-4.47-3.27-8.94-4.47-12.3,1.2,2.24,2.29,4.47,3.38,6.71a3.51,3.51,0,0,0,1.09,2.24C641.52,344.35,699.53,473.86,644.9,564.29Z"/><path class="cls-3" d="M762.12,363.32c-1.09,5.56-3.38,10-5.56,14.5l-95,165.26a100.8,100.8,0,0,1-16.68,21.21C704,466,630.29,322,615.78,296.31a5.6,5.6,0,0,1-1.09-3.35l-1.09-1.12L561.15,200.3l-12.32-21.21h-29l1.09-1.14c4.47-11.15,50.27-100.49,129.54-92.66h1.09c4.47,4.44,6.65,8.91,10,13.38l4.47,6.71,90.51,158.55C774.33,294.08,776.62,332.05,762.12,363.32Z"/><path class="cls-4" d="M650.46,85.29C571.19,77.46,525.39,166.8,520.92,178l-1.09,1.14L515.36,188l-44.71,77c-20.07,34.62-56.92,55.83-96,55.83H278.62l77-134,5.67-7.8h-86l1.09-1.14C283.09,162.33,346.77,41.72,474,41.72h88.21C596.81,41.72,630.29,57.37,650.46,85.29Z"/><path class="cls-5" d="M474,41.72s-84.84,20.1-150.81,137.37h-48l1.09-1.14C283.09,162.33,346.77,41.72,474,41.72Z"/><path class="cls-6" d="M650.46,85.29s-76,36.83-89.31,115l-12.32-21.21h-29l1.09-1.14C525.39,166.8,571.19,77.46,650.46,85.29Z"/><path class="cls-7" d="M644.9,564.29c-1.2,1.14-1.2,1.14-2.29,2.23-12.32,12.3-29,22.36-45.8,26.83,53.65-94.92,29.12-254.59,23.44-284.74v-3.35C641.52,344.35,699.53,473.86,644.9,564.29Z"/></g></g></svg>