<svg xmlns="http://www.w3.org/2000/svg" viewBox="0 0 2484.42 686.93"><defs><style>.cls-1{fill:#1f0322;}.cls-2{fill:#a2e8ea;}.cls-3{fill:#acbcc6;}.cls-4{fill:#cdaca1;}.cls-5{fill:#b5887c;}.cls-6{fill:#9aaeb7;}.cls-7{fill:#8bd8d8;}</style></defs><g id="Layer_2" data-name="Layer 2"><g id="Layer_1-2" data-name="Layer 1"><path class="cls-1" d="M926.63,359.43h107.31q40.49,0,71.73,16c20.86,10.67,37,25.67,48.61,44.93s17.27,41.43,17.27,66.44-5.76,47.1-17.27,66.35-27.75,34.26-48.61,44.93-44.74,16-71.73,16H926.63Zm105.14,223.11q31,0,54.46-12.08a86.44,86.44,0,0,0,36.14-33.6q12.75-21.66,12.75-50t-12.75-50.11c-8.49-14.45-20.57-25.58-36.14-33.6s-33.79-12-54.46-12H963v191.4Z"/><path class="cls-1" d="M1203.92,421.25V614.54h34.83V421.25Z"/><path class="cls-1" d="M1471.77,421.34V587.92q0,50.69-25.1,74.85t-75,24.16a178.65,178.65,0,0,1-52-7.46c-16.52-5-29.82-12.08-40-21.23l16.71-27c9,7.74,20.1,13.88,33.32,18.41a128.14,128.14,0,0,0,41,6.7c22.55,0,39.26-5.29,50-16s16.23-27,16.23-48.8V576.31a78.44,78.44,0,0,1-30.39,22.37,101.25,101.25,0,0,1-39.17,7.46c-18.4,0-35.11-4-50-11.8a88.65,88.65,0,0,1-35.11-33.13c-8.49-14.15-12.74-30.39-12.74-48.6s4.25-34.36,12.74-48.51a86.23,86.23,0,0,1,35.11-32.94c14.91-7.84,31.62-11.71,50-11.71a103,103,0,0,1,40.59,8,75.8,75.8,0,0,1,30.77,23.69V421.34Zm-66.44,146.2A58.83,58.83,0,0,0,1429,545.17q8.49-14.29,8.49-32.56c0-18.69-6.13-33.79-18.5-45.31S1390.7,450,1371.35,450c-19.72,0-35.67,5.76-48,17.27s-18.59,26.62-18.59,45.31c0,12.17,2.83,23,8.59,32.56a57.94,57.94,0,0,0,23.59,22.37c10.1,5.38,21.52,8,34.45,8C1383.9,575.56,1395.23,572.92,1405.33,567.54Z"/><path class="cls-1" d="M1519.91,421.25V614.54h34.82V421.25Z"/><path class="cls-1" d="M1711.88,602.84a52.15,52.15,0,0,1-19,10.09,79.76,79.76,0,0,1-23.22,3.4c-19.44,0-34.45-5.19-45.21-15.67s-16-25.29-16-44.73V450h-32.75V421.34h32.75V379.06h34.92v42.28h55.31V450h-55.31V554.51c0,10.38,2.64,18.41,7.84,24s12.64,8.4,22.36,8.4c10.67,0,19.73-3,27.28-9.16Z"/><path class="cls-1" d="M1867.51,439.08q21.24,19.68,21.24,58.62V614.16h-33.13V588.68c-5.76,9-14.06,15.85-24.92,20.57s-23.59,7.08-38.41,7.08q-32.28,0-51.81-15.67c-12.93-10.38-19.45-24.06-19.45-41s6.14-30.67,18.5-41,32.09-15.48,59-15.48h55.31v-6.89c0-15.1-4.34-26.62-13.12-34.64s-21.62-12-38.51-12a101.78,101.78,0,0,0-33.5,5.66c-11,3.77-20.2,8.78-27.66,15.1l-14.53-26.24a106.67,106.67,0,0,1,35.58-18.31,149.33,149.33,0,0,1,44.07-6.42C1832.87,419.45,1853.26,426.06,1867.51,439.08Zm-34.82,141.39a50.77,50.77,0,0,0,21.14-25.3v-26.9h-53.89q-44.32,0-44.36,29.83,0,14.58,11.32,22.93c7.46,5.57,17.93,8.4,31.24,8.4S1823.06,586.41,1832.69,580.47Z"/><path class="cls-1" d="M1935.37,344.14h34.92v270h-34.92Z"/><rect class="cls-1" x="126.72" y="76.17" width="51.36" height="52.45"/><rect class="cls-1" x="57.18" y="175.65" width="21.79" height="21.79"/><rect class="cls-1" x="87.65" y="8.74" width="33.94" height="33.94"/><rect class="cls-1" x="63.64" y="67.23" width="34.46" height="34.46"/><rect class="cls-1" x="18.48" y="90.07" width="21.79" height="21.79" transform="translate(-68.62 139.08) rotate(-95.03)"/><rect class="cls-1" x="0.91" y="14.82" width="21.79" height="21.79" transform="translate(-12.77 39.73) rotate(-95.03)"/><rect class="cls-1" x="187.03" y="29.26" width="21.26" height="22.33"/><path class="cls-1" d="M196,50.47l-1.09,1.12h13.41V50.47Z"/><path class="cls-1" d="M208.29,50.47v1.12H194.88l-16.8,29V96.27h26.83v44.65H180.37v-12.3h-30.2l-6.65,12.3-2.29,3.35h-48v51.36h19L34,329.62h95a112.24,112.24,0,0,0,97.16-55.83l49.07-86,1.09-1.15C283.09,171.07,346.77,50.47,474,50.47ZM155.73,202.34H133.48v-6.71H145.7V178.89h10Z"/><path class="cls-2" d="M644.9,573c-1.2,1.15-1.2,1.15-2.29,2.24-12.32,12.29-29,22.35-45.8,26.82a90.74,90.74,0,0,1-34.57,6.68H371.31c-41.33,0-78.19-21.21-99.45-56.95L225,471.43H514.26c21.16,0,41.22-11.15,51.36-29l48-83.75c6.65-13.38,8.94-27.91,6.65-41.3-1.09-4.47-3.27-8.94-4.47-12.29,1.2,2.23,2.29,4.47,3.38,6.7a3.51,3.51,0,0,0,1.09,2.24C641.52,353.09,699.53,482.61,644.9,573Z"/><path class="cls-3" d="M762.12,372.06c-1.09,5.57-3.38,10-5.56,14.51l-95,165.25A100.54,100.54,0,0,1,644.9,573c59.1-98.25-14.61-242.29-29.12-268a5.64,5.64,0,0,1-1.09-3.36l-1.09-1.11L561.15,209l-12.32-21.2h-29l1.09-1.15C525.39,175.54,571.19,86.21,650.46,94h1.09c4.47,4.44,6.65,8.91,10,13.39l4.47,6.7,90.51,158.55C774.33,302.82,776.62,340.8,762.12,372.06Z"/><path class="cls-4" d="M650.46,94c-79.27-7.82-125.07,81.51-129.54,92.66l-1.09,1.15-4.47,8.91-44.71,77c-20.07,34.62-56.92,55.83-96,55.83H278.62l77-134,5.67-7.79h-86l1.09-1.15C283.09,171.07,346.77,50.47,474,50.47h88.21C596.81,50.47,630.29,66.12,650.46,94Z"/><path class="cls-5" d="M474,50.47S389.19,70.56,323.22,187.84h-48l1.09-1.15C283.09,171.07,346.77,50.47,474,50.47Z"/><path class="cls-6" d="M650.46,94s-76,36.83-89.31,115l-12.32-21.2h-29l1.09-1.15C525.39,175.54,571.19,86.21,650.46,94Z"/><path class="cls-7" d="M644.9,573c-1.2,1.15-1.2,1.15-2.29,2.24-12.32,12.29-29,22.35-45.8,26.82,53.65-94.92,29.12-254.59,23.44-284.74V314C641.52,353.09,699.53,482.61,644.9,573Z"/><rect class="cls-4" x="1203.92" y="379.06" width="34.83" height="29.98"/><rect class="cls-4" x="1519.91" y="379.06" width="34.83" height="29.98"/><path class="cls-1" d="M1187,305.76l-.76-152.88L1112,277.3h-36.2L1002,157V305.76H926.63V17.23H993.8l101.3,166.51L1194,17.23h67.17l.88,288.53Z"/><path class="cls-1" d="M1530.4,82.44V305.76h-74.58V281.88a81.78,81.78,0,0,1-29.66,20.61,96.63,96.63,0,0,1-36.75,7q-43.19,0-69-25.52-25.68-25.68-25.73-76.66V82.44h78.29V194.53q0,25,9.49,36.64c6.32,7.64,15.48,11.56,27.59,11.56,12.43,0,22.46-4.36,30.31-13s11.78-21.91,11.78-39.8V82.44Z"/><path class="cls-1" d="M1665.73,86.25q19.13-7.52,43.83-7.52v70.44a150.12,150.12,0,0,0-17.66-1.31c-16.8,0-29.88,4.58-39.37,13.63s-14.17,23-14.17,41.66V305.76h-78.3V82.44h74.59v26.71A73.47,73.47,0,0,1,1665.73,86.25Z"/><path class="cls-1" d="M1917.18,92.91a103.22,103.22,0,0,1,39.47,40.34q14.73,26.17,14.72,60.85,0,34.52-14.72,60.73-14.55,26.17-39.47,40.46c-16.68,9.49-35.11,14.18-55.5,14.18q-39.11,0-62.16-23.45v99.67h-78.29V82.44h74.58v22.24c14.51-17.34,36.53-25.95,65.87-25.95C1882.07,78.73,1900.5,83.42,1917.18,92.91ZM1879,233c8.84-9.49,13.2-22.47,13.2-38.93s-4.36-29.44-13.2-38.93-20.06-14.29-33.8-14.29-25,4.8-33.8,14.29-13.2,22.46-13.2,38.93,4.47,29.44,13.2,38.93,20.06,14.17,33.8,14.17S1870.18,242.51,1879,233Z"/><path class="cls-1" d="M2199.38,103.37c16.91,16.47,25.3,41.44,25.3,74.59v127.8h-78.29V190.83q0-45.81-36.64-45.8c-13.52,0-24.32,4.36-32.39,13.19s-12.1,22-12.1,39.58v108H1987V0h78.29V103.05a84.4,84.4,0,0,1,30.1-18.21,108.25,108.25,0,0,1,37.07-6.11Q2174,78.73,2199.38,103.37Z"/><path class="cls-1" d="M2484.42,82.44l-96.5,232.37q-16.85,41.22-41.22,57.9c-16.14,11.12-36,16.68-59.32,16.68a120.25,120.25,0,0,1-35.66-5.56c-11.88-3.7-21.59-8.61-29-14.61l27.15-54.85a45.88,45.88,0,0,0,15.92,9.71,51,51,0,0,0,18.76,3.49c7.41,0,13.52-1.53,18.32-4.47s8.83-7.86,12.1-14.51L2219.34,82.44h80.36l54.85,136.41,55.29-136.41Z"/></g></g></svg>