<svg xmlns="http://www.w3.org/2000/svg" viewBox="0 0 3807.05 600.03"><defs><style>.cls-1{fill:#1f0322;}.cls-2{fill:#cdaca1;}.cls-3{fill:#a2e8ea;}.cls-4{fill:#acbcc6;}.cls-5{fill:#b5887c;}.cls-6{fill:#9aaeb7;}.cls-7{fill:#8bd8d8;}</style></defs><g id="Layer_2" data-name="Layer 2"><g id="Layer_1-2" data-name="Layer 1"><path class="cls-1" d="M2601.25,190.27h124q46.79,0,82.87,18.54c24.1,12.32,42.75,29.66,56.16,51.9s20,47.87,20,76.77-6.66,54.41-20,76.66-32.06,39.58-56.16,51.9-51.68,18.54-82.87,18.54h-124Zm121.47,257.78q35.82,0,62.92-14,27-13.74,41.76-38.82t14.72-57.79q0-32.88-14.72-57.9c-9.81-16.69-23.77-29.55-41.76-38.82s-39-13.85-62.92-13.85h-79.49V448.05Z"/><path class="cls-1" d="M2921.62,261.69V485h40.23V261.69Z"/><path class="cls-1" d="M3231.08,261.8V454.26q0,58.56-29,86.48t-86.69,27.91A206.36,206.36,0,0,1,3055.3,560c-19.08-5.78-34.45-14-46.23-24.54l19.3-31.19c10.36,8.95,23.23,16,38.49,21.27a148.1,148.1,0,0,0,47.33,7.74q39.09,0,57.79-18.43c12.43-12.43,18.76-31.18,18.76-56.37V440.85a90.66,90.66,0,0,1-35.12,25.84,116.9,116.9,0,0,1-45.25,8.62q-31.89,0-57.79-13.63A102.4,102.4,0,0,1,3012,423.4c-9.81-16.35-14.72-35.11-14.72-56.15s4.91-39.69,14.72-56.05a99.64,99.64,0,0,1,40.57-38.06q25.85-13.58,57.79-13.52a119.07,119.07,0,0,1,46.89,9.27,87.67,87.67,0,0,1,35.55,27.37V261.8Zm-76.76,168.91a68.07,68.07,0,0,0,27.37-25.84q9.81-16.53,9.81-37.62,0-32.38-21.37-52.34c-14.29-13.31-32.72-20-55.07-20-22.79,0-41.22,6.65-55.5,20s-21.48,30.75-21.48,52.34c0,14.06,3.27,26.6,9.92,37.62a67,67,0,0,0,27.26,25.84c11.67,6.22,24.86,9.27,39.8,9.27C3129.56,440,3142.65,436.93,3154.32,430.71Z"/><path class="cls-1" d="M3286.69,261.69V485h40.24V261.69Z"/><path class="cls-2" d="M2961.85,173.48c4.47,5.61,7.75,11.17,7.75,17.88,0,7.82-3.28,14.5-7.75,20.09-5.67,4.47-12.32,7.82-20.17,7.82a27,27,0,0,1-19-7.82c-5.56-5.59-7.74-11.15-7.74-19,0-6.71,2.18-13.39,7.74-17.86,4.47-5.59,11.23-7.82,19-7.82A31.55,31.55,0,0,1,2961.85,173.48Z"/><path class="cls-2" d="M3334.78,191.36c0,7.82-3.38,14.5-7.85,20.09-5.56,4.47-12.32,7.82-20.06,7.82a26.86,26.86,0,0,1-19-7.82c-5.67-5.59-7.85-11.15-7.85-19,0-6.71,2.18-13.39,7.85-17.86,4.47-5.59,11.13-7.82,19-7.82a31.25,31.25,0,0,1,20.06,6.68C3331.4,179.09,3334.78,184.65,3334.78,191.36Z"/><path class="cls-1" d="M3508.49,471.49c-5.89,5.13-13.2,8.94-21.92,11.67a92.16,92.16,0,0,1-26.82,3.93c-22.47,0-39.8-6-52.24-18.11s-18.42-29.22-18.42-51.68V295h-37.84V261.8h37.84V213h40.34V261.8h63.9V295h-63.9V415.66c0,12,3.06,21.27,9.05,27.7s14.61,9.7,25.85,9.7c12.32,0,22.79-3.49,31.51-10.57Z"/><path class="cls-1" d="M3688.3,282.3Q3712.84,305,3712.84,350V484.58h-38.28V455.14c-6.65,10.36-16.25,18.32-28.79,23.77s-27.26,8.18-44.38,8.18q-37.29,0-59.86-18.11-22.41-18-22.46-47.43c0-19.63,7.08-35.44,21.37-47.32s37.07-17.89,68.15-17.89h63.9v-8c0-17.44-5-30.75-15.16-40s-25-13.85-44.49-13.85a117.88,117.88,0,0,0-38.71,6.55c-12.65,4.36-23.33,10.14-32,17.44l-16.79-30.31c11.45-9.16,25.19-16.25,41.11-21.15a172.58,172.58,0,0,1,50.92-7.42C3648.28,259.62,3671.84,267.25,3688.3,282.3Zm-40.24,163.35a58.65,58.65,0,0,0,24.43-29.22V385.35h-62.26q-51.2,0-51.25,34.46,0,16.85,13.08,26.49c8.62,6.44,20.72,9.71,36.09,9.71S3636.94,452.52,3648.06,445.65Z"/><path class="cls-1" d="M3766.7,172.6h40.35v312H3766.7Z"/><rect class="cls-1" x="126.72" y="67.43" width="51.36" height="52.45"/><rect class="cls-1" x="57.18" y="166.91" width="21.79" height="21.79"/><rect class="cls-1" x="87.65" width="33.94" height="33.94"/><rect class="cls-1" x="63.64" y="58.49" width="34.46" height="34.46"/><rect class="cls-1" x="18.48" y="81.32" width="21.79" height="21.79" transform="translate(-59.91 129.57) rotate(-95.03)"/><rect class="cls-1" x="0.91" y="6.08" width="21.79" height="21.79" transform="translate(-4.06 30.22) rotate(-95.03)"/><rect class="cls-1" x="187.03" y="20.52" width="21.26" height="22.33"/><path class="cls-1" d="M196,41.72l-1.09,1.12h13.41V41.72Z"/><path class="cls-1" d="M208.29,41.72v1.12H194.88l-16.8,29V87.52h26.83v44.66H180.37v-12.3h-30.2l-6.65,12.3-2.29,3.35h-48v51.36h19L34,320.88h95a112.24,112.24,0,0,0,97.16-55.83l49.07-86,1.09-1.14C283.09,162.33,346.77,41.72,474,41.72ZM155.73,193.6H133.48v-6.71H145.7V170.15h10Z"/><path class="cls-3" d="M644.9,564.29c-1.2,1.14-1.2,1.14-2.29,2.23-12.32,12.3-29,22.36-45.8,26.83A90.74,90.74,0,0,1,562.24,600H371.31c-41.33,0-78.19-21.21-99.45-56.95L225,462.69H514.26c21.16,0,41.22-11.15,51.36-29l48-83.74c6.65-13.39,8.94-27.92,6.65-41.3-1.09-4.47-3.27-8.94-4.47-12.3,1.2,2.24,2.29,4.47,3.38,6.71a3.51,3.51,0,0,0,1.09,2.24C641.52,344.35,699.53,473.86,644.9,564.29Z"/><path class="cls-4" d="M762.12,363.32c-1.09,5.56-3.38,10-5.56,14.5l-95,165.26a100.8,100.8,0,0,1-16.68,21.21C704,466,630.29,322,615.78,296.31a5.6,5.6,0,0,1-1.09-3.35l-1.09-1.12L561.15,200.3l-12.32-21.21h-29l1.09-1.14c4.47-11.15,50.27-100.49,129.54-92.66h1.09c4.47,4.44,6.65,8.91,10,13.38l4.47,6.71,90.51,158.55C774.33,294.08,776.62,332.05,762.12,363.32Z"/><path class="cls-2" d="M650.46,85.29C571.19,77.46,525.39,166.8,520.92,178l-1.09,1.14L515.36,188l-44.71,77c-20.07,34.62-56.92,55.83-96,55.83H278.62l77-134,5.67-7.8h-86l1.09-1.14C283.09,162.33,346.77,41.72,474,41.72h88.21C596.81,41.72,630.29,57.37,650.46,85.29Z"/><path class="cls-5" d="M474,41.72s-84.84,20.1-150.81,137.37h-48l1.09-1.14C283.09,162.33,346.77,41.72,474,41.72Z"/><path class="cls-6" d="M650.46,85.29s-76,36.83-89.31,115l-12.32-21.21h-29l1.09-1.14C525.39,166.8,571.19,77.46,650.46,85.29Z"/><path class="cls-7" d="M644.9,564.29c-1.2,1.14-1.2,1.14-2.29,2.23-12.32,12.3-29,22.36-45.8,26.83,53.65-94.92,29.12-254.59,23.44-284.74v-3.35C641.52,344.35,699.53,473.86,644.9,564.29Z"/><path class="cls-1" d="M1221.41,478.8l-.76-152.88-74.26,124.42h-36.2l-73.83-120.28V478.8H961V190.27h67.17l101.3,166.51,98.9-166.51h67.17l.87,288.53Z"/><path class="cls-1" d="M1564.79,255.48V478.8H1490.2V454.92a81.69,81.69,0,0,1-29.66,20.61,96.58,96.58,0,0,1-36.74,7q-43.18,0-69-25.52-25.68-25.68-25.73-76.66V255.48h78.29V367.57q0,25,9.49,36.64c6.32,7.64,15.48,11.56,27.59,11.56,12.43,0,22.46-4.36,30.31-13s11.78-21.92,11.78-39.81V255.48Z"/><path class="cls-1" d="M1700.11,259.29q19.14-7.52,43.84-7.52v70.44a150.12,150.12,0,0,0-17.67-1.31c-16.79,0-29.88,4.58-39.36,13.63s-14.18,23-14.18,41.66V478.8h-78.29V255.48H1669v26.71A73.47,73.47,0,0,1,1700.11,259.29Z"/><path class="cls-1" d="M1951.57,266A103.22,103.22,0,0,1,1991,306.29q14.71,26.18,14.72,60.85,0,34.51-14.72,60.74-14.55,26.16-39.47,40.45c-16.69,9.49-35.12,14.18-55.51,14.18q-39.09,0-62.15-23.45v99.67h-78.29V255.48h74.58v22.24c14.5-17.34,36.53-26,65.86-26C1916.45,251.77,1934.88,256.46,1951.57,266ZM1913.4,406.07c8.83-9.49,13.2-22.47,13.2-38.93s-4.37-29.44-13.2-38.93-20.06-14.29-33.8-14.29-25,4.8-33.81,14.29-13.19,22.46-13.19,38.93,4.47,29.44,13.19,38.93,20.07,14.17,33.81,14.17S1904.57,415.55,1913.4,406.07Z"/><path class="cls-1" d="M2233.77,276.41c16.9,16.47,25.3,41.44,25.3,74.59V478.8h-78.29V363.87q0-45.81-36.64-45.8c-13.52,0-24.32,4.36-32.39,13.19s-12.1,22-12.1,39.59v108h-78.3V173h78.3v103a84.27,84.27,0,0,1,30.09-18.21,108.27,108.27,0,0,1,37.08-6.11Q2208.37,251.77,2233.77,276.41Z"/><path class="cls-1" d="M2518.81,255.48l-96.5,232.37q-16.84,41.22-41.22,57.9c-16.14,11.12-36,16.68-59.32,16.68a120.2,120.2,0,0,1-35.66-5.56c-11.88-3.7-21.59-8.61-29-14.61l27.15-54.85a45.79,45.79,0,0,0,15.92,9.71,51,51,0,0,0,18.75,3.49c7.42,0,13.53-1.53,18.32-4.47s8.84-7.85,12.11-14.51l-95.63-226.15h80.36l54.85,136.41,55.28-136.41Z"/></g></g></svg>